<svg width="24" height="25" viewBox="0 0 24 25" fill="none" xmlns="http://www.w3.org/2000/svg">
<path d="M4.00006 4.5L20.0001 20.5M14.0001 14.7361C13.4693 15.2111 12.7684 15.5 12.0001 15.5C10.3432 15.5 9.00006 14.1569 9.00006 12.5C9.00006 11.7316 9.28891 11.0308 9.76395 10.5M19.6078 16.1077C20.1792 15.6103 20.6903 15.1099 21.1304 14.6469C22.29 13.4268 22.29 11.5732 21.1304 10.3531C19.1746 8.29533 15.8156 5.5 12.0001 5.5C11.1087 5.5 10.2422 5.65256 9.41276 5.91264M6.50006 7.30338C5.0415 8.23444 3.7977 9.37678 2.86977 10.3531C1.71016 11.5732 1.71016 13.4268 2.86977 14.6469C4.82555 16.7047 8.18455 19.5 12.0001 19.5C13.8681 19.5 15.6268 18.8299 17.1649 17.9044" stroke="#A2A2A2" stroke-width="1.5" stroke-linecap="round"/>
</svg>
