<svg width="109" height="26" viewBox="0 0 109 26" fill="none" xmlns="http://www.w3.org/2000/svg">
<path d="M7.81977 4.99995H0V0.406921H21.2791V4.99995H7.81977Z" fill="#5E66A7"/>
<path d="M18.6919 25.2616C15.2326 25.2616 12.5291 24.3023 10.5524 22.3546C8.60471 20.436 7.61633 17.6744 7.61633 14.0988V0.435974H13.2559V13.8953C13.2559 16.2209 13.721 17.9069 14.6803 18.9244C15.6396 19.9418 16.9768 20.4651 18.6919 20.4651C20.407 20.4651 21.7442 19.9418 22.7035 18.9244C23.6628 17.9069 24.128 16.2209 24.128 13.8953V0.435974H29.7094V14.0988C29.7094 17.6744 28.721 20.436 26.7733 22.3546C24.8256 24.2732 22.1221 25.2616 18.6338 25.2616H18.6919Z" fill="#5E66A7"/>
<path d="M40.9593 24.7964V4.97083H33.1395V0.377808H54.4186V4.97083H46.5988V24.7964H40.9593Z" fill="#5E66A7"/>
<path d="M68.9824 25.2325C67.0638 25.2325 65.2615 24.9128 63.6336 24.3023C62.0057 23.6627 60.5813 22.7907 59.3894 21.6569C58.1976 20.5232 57.2673 19.186 56.5987 17.6453C55.9301 16.1046 55.6104 14.4476 55.6104 12.6162C55.6104 10.7848 55.9301 9.12785 56.5987 7.58715C57.2673 6.04645 58.1976 4.70924 59.4185 3.57552C60.6394 2.4418 62.0348 1.54064 63.6627 0.930171C65.2906 0.290636 67.0638 -6.10352e-05 68.9534 -6.10352e-05C70.8429 -6.10352e-05 72.6452 0.319706 74.2731 0.930171C75.901 1.56971 77.2964 2.4418 78.4883 3.57552C79.6801 4.70924 80.6104 6.04645 81.308 7.55808C82.0057 9.06971 82.3255 10.7558 82.3255 12.5872C82.3255 14.4186 81.9766 16.0755 81.308 17.6162C80.6394 19.1569 79.7092 20.4941 78.4883 21.6279C77.2964 22.7616 75.872 23.6337 74.2731 24.2732C72.6452 24.9127 70.9011 25.2034 68.9824 25.2034V25.2325ZM68.9534 20.4069C70.058 20.4069 71.0464 20.2325 71.9766 19.8546C72.9069 19.4767 73.6917 18.9534 74.3894 18.2558C75.0871 17.5581 75.6394 16.7441 76.0173 15.7848C76.3952 14.8255 76.5987 13.779 76.5987 12.6162C76.5987 11.4534 76.3952 10.4069 76.0173 9.44762C75.6394 8.48832 75.0871 7.67436 74.4185 6.97669C73.7208 6.27901 72.9359 5.75576 72.0057 5.37785C71.0755 4.99994 70.058 4.82552 68.9824 4.82552C67.9069 4.82552 66.8894 4.99994 65.9592 5.37785C65.029 5.75576 64.2441 6.27901 63.5464 6.97669C62.8487 7.67436 62.2964 8.48832 61.9185 9.44762C61.5406 10.4069 61.3371 11.4534 61.3371 12.6162C61.3371 13.779 61.5406 14.7965 61.9185 15.7848C62.2964 16.7441 62.8487 17.5872 63.5173 18.2848C64.215 18.9825 64.9999 19.5058 65.9301 19.8837C66.8604 20.2616 67.8778 20.436 68.9534 20.436V20.4069Z" fill="#5E66A7"/>
<path d="M86.5697 24.7964V0.377808H97.1511C99.3313 0.377808 101.221 0.726645 102.791 1.45339C104.36 2.15106 105.581 3.16851 106.453 4.50572C107.326 5.84293 107.732 7.4127 107.732 9.24409C107.732 11.0755 107.296 12.6162 106.453 13.9243C105.581 15.2325 104.36 16.2499 102.791 16.9476C101.221 17.6453 99.3313 17.9941 97.1511 17.9941H89.7092L92.2092 15.5232V24.7964H86.5697ZM92.2092 16.1336L89.7092 13.4883H96.8313C98.5755 13.4883 99.8837 13.1104 100.727 12.3546C101.599 11.5987 102.006 10.5522 102.006 9.24409C102.006 7.93595 101.57 6.86037 100.727 6.10455C99.8546 5.34874 98.5755 4.9999 96.8313 4.9999H89.7092L92.2092 2.32548V16.1627V16.1336ZM102.093 24.7964L95.9883 15.9301H102.035L108.198 24.7964H102.093Z" fill="#5E66A7"/>
</svg>
